<svg width="80" height="51" viewBox="0 0 80 51" fill="none" xmlns="http://www.w3.org/2000/svg">
<rect x="0.5" y="1" width="59" height="49" rx="2.5" fill="#99B2FF" stroke="#001F80"/>
<path d="M0 3.5C0 1.84315 1.34315 0.5 3 0.5H3.95546C4.67473 0.5 5.37007 0.758422 5.91475 1.22818L28.0239 20.2957C29.157 21.2729 30.8369 21.2658 31.9616 20.2791L53.658 1.24484C54.2053 0.764729 54.9085 0.5 55.6365 0.5H57C58.6569 0.5 60 1.84315 60 3.5V48.3873C60 49.5541 59.0541 50.5 57.8873 50.5C56.7205 50.5 55.7746 49.5541 55.7746 48.3873V5.5L31.9729 26.2778C30.8427 27.2644 29.1573 27.2644 28.0271 26.2778L4.22535 5.5V48.3873C4.22535 49.5541 3.27947 50.5 2.11268 50.5C0.945878 50.5 0 49.5541 0 48.3873V3.5Z" fill="#001F80"/>
<path d="M55 3C55 1.61929 56.1193 0.5 57.5 0.5C58.8807 0.5 60 1.61929 60 3V18C60 19.6569 61.3431 21 63 21H72C73.6569 21 75 19.6569 75 18V3C75 1.61929 76.1193 0.5 77.5 0.5C78.8807 0.5 80 1.61929 80 3V23C80 24.6569 78.6569 26 77 26H63C61.3431 26 60 27.3431 60 29V48C60 49.3807 58.8807 50.5 57.5 50.5C56.1193 50.5 55 49.3807 55 48V3Z" fill="#001F80"/>
</svg>
